<mxfile host="Electron" agent="Mozilla/5.0 (Windows NT 10.0; Win64; x64) AppleWebKit/537.36 (KHTML, like Gecko) draw.io/24.7.17 Chrome/128.0.6613.36 Electron/32.0.1 Safari/537.36" version="24.7.17">
  <diagram name="Page-1" id="V6B9w7NfiHCgcNksF1dQ">
    <mxGraphModel dx="1036" dy="606" grid="1" gridSize="10" guides="1" tooltips="1" connect="1" arrows="1" fold="1" page="1" pageScale="1" pageWidth="827" pageHeight="1169" math="0" shadow="0">
      <root>
        <mxCell id="0" />
        <mxCell id="1" parent="0" />
        <mxCell id="oBHU4gWdmzWZVVvlANU7-2" value="User" style="shape=umlActor;verticalLabelPosition=bottom;verticalAlign=top;html=1;outlineConnect=0;" vertex="1" parent="1">
          <mxGeometry x="5" y="170" width="30" height="60" as="geometry" />
        </mxCell>
        <mxCell id="oBHU4gWdmzWZVVvlANU7-4" value=":Controller" style="shape=umlLifeline;perimeter=lifelinePerimeter;whiteSpace=wrap;html=1;container=1;dropTarget=0;collapsible=0;recursiveResize=0;outlineConnect=0;portConstraint=eastwest;newEdgeStyle={&quot;curved&quot;:0,&quot;rounded&quot;:0};fillColor=#fff2cc;strokeColor=default;" vertex="1" parent="1">
          <mxGeometry x="65" y="90" width="100" height="450" as="geometry" />
        </mxCell>
        <mxCell id="oBHU4gWdmzWZVVvlANU7-5" value="" style="html=1;points=[[0,0,0,0,5],[0,1,0,0,-5],[1,0,0,0,5],[1,1,0,0,-5]];perimeter=orthogonalPerimeter;outlineConnect=0;targetShapes=umlLifeline;portConstraint=eastwest;newEdgeStyle={&quot;curved&quot;:0,&quot;rounded&quot;:0};" vertex="1" parent="oBHU4gWdmzWZVVvlANU7-4">
          <mxGeometry x="45" y="110" width="10" height="270" as="geometry" />
        </mxCell>
        <mxCell id="oBHU4gWdmzWZVVvlANU7-6" value="&lt;span style=&quot;color: rgb(255, 255, 255); font-family: Inter, system-ui, -apple-system, BlinkMacSystemFont, &amp;quot;Segoe UI&amp;quot;, Roboto, Oxygen, Ubuntu, Cantarell, &amp;quot;Fira Sans&amp;quot;, &amp;quot;Droid Sans&amp;quot;, Helvetica, Arial, sans-serif; font-size: 12px; text-align: left; white-space: pre-wrap; background-color: rgb(33, 33, 33);&quot;&gt;register&lt;/span&gt;" style="html=1;verticalAlign=bottom;startArrow=oval;endArrow=block;startSize=8;curved=0;rounded=0;entryX=0;entryY=0;entryDx=0;entryDy=5;" edge="1" target="oBHU4gWdmzWZVVvlANU7-5" parent="oBHU4gWdmzWZVVvlANU7-4">
          <mxGeometry relative="1" as="geometry">
            <mxPoint x="-25" y="115" as="sourcePoint" />
          </mxGeometry>
        </mxCell>
        <mxCell id="oBHU4gWdmzWZVVvlANU7-8" value="" style="html=1;points=[[0,0,0,0,5],[0,1,0,0,-5],[1,0,0,0,5],[1,1,0,0,-5]];perimeter=orthogonalPerimeter;outlineConnect=0;targetShapes=umlLifeline;portConstraint=eastwest;newEdgeStyle={&quot;curved&quot;:0,&quot;rounded&quot;:0};" vertex="1" parent="oBHU4gWdmzWZVVvlANU7-4">
          <mxGeometry x="45" y="110" width="10" height="220" as="geometry" />
        </mxCell>
        <mxCell id="oBHU4gWdmzWZVVvlANU7-9" value="ValidaRequest" style="html=1;align=left;spacingLeft=2;endArrow=block;rounded=0;edgeStyle=orthogonalEdgeStyle;curved=0;rounded=0;" edge="1" target="oBHU4gWdmzWZVVvlANU7-8" parent="oBHU4gWdmzWZVVvlANU7-4">
          <mxGeometry relative="1" as="geometry">
            <mxPoint x="50" y="120" as="sourcePoint" />
            <Array as="points">
              <mxPoint x="80" y="150" />
            </Array>
          </mxGeometry>
        </mxCell>
        <mxCell id="oBHU4gWdmzWZVVvlANU7-10" value=":Service" style="shape=umlLifeline;perimeter=lifelinePerimeter;whiteSpace=wrap;html=1;container=1;dropTarget=0;collapsible=0;recursiveResize=0;outlineConnect=0;portConstraint=eastwest;newEdgeStyle={&quot;curved&quot;:0,&quot;rounded&quot;:0};fillColor=#d5e8d4;strokeColor=default;" vertex="1" parent="1">
          <mxGeometry x="265" y="90" width="100" height="450" as="geometry" />
        </mxCell>
        <mxCell id="oBHU4gWdmzWZVVvlANU7-19" value="" style="html=1;points=[[0,0,0,0,5],[0,1,0,0,-5],[1,0,0,0,5],[1,1,0,0,-5]];perimeter=orthogonalPerimeter;outlineConnect=0;targetShapes=umlLifeline;portConstraint=eastwest;newEdgeStyle={&quot;curved&quot;:0,&quot;rounded&quot;:0};" vertex="1" parent="oBHU4gWdmzWZVVvlANU7-10">
          <mxGeometry x="40" y="205" width="10" height="75" as="geometry" />
        </mxCell>
        <mxCell id="oBHU4gWdmzWZVVvlANU7-21" value="return" style="html=1;verticalAlign=bottom;endArrow=open;dashed=1;endSize=8;curved=0;rounded=0;exitX=0;exitY=1;exitDx=0;exitDy=-5;" edge="1" parent="oBHU4gWdmzWZVVvlANU7-10" target="oBHU4gWdmzWZVVvlANU7-8">
          <mxGeometry relative="1" as="geometry">
            <mxPoint x="-30" y="226" as="targetPoint" />
            <mxPoint x="40" y="226" as="sourcePoint" />
          </mxGeometry>
        </mxCell>
        <mxCell id="oBHU4gWdmzWZVVvlANU7-11" value="alt" style="shape=umlFrame;whiteSpace=wrap;html=1;pointerEvents=0;" vertex="1" parent="1">
          <mxGeometry x="105" y="250" width="715" height="150" as="geometry" />
        </mxCell>
        <mxCell id="oBHU4gWdmzWZVVvlANU7-12" value="[valida=ok]" style="text;html=1;align=center;verticalAlign=middle;whiteSpace=wrap;rounded=0;fontStyle=1" vertex="1" parent="1">
          <mxGeometry x="125" y="275" width="60" height="30" as="geometry" />
        </mxCell>
        <mxCell id="oBHU4gWdmzWZVVvlANU7-20" value="register()" style="html=1;verticalAlign=bottom;endArrow=block;curved=0;rounded=0;entryX=0;entryY=0;entryDx=0;entryDy=5;" edge="1" parent="1">
          <mxGeometry relative="1" as="geometry">
            <mxPoint x="120" y="299" as="sourcePoint" />
            <mxPoint x="305" y="299" as="targetPoint" />
          </mxGeometry>
        </mxCell>
        <mxCell id="oBHU4gWdmzWZVVvlANU7-22" value="" style="html=1;points=[[0,0,0,0,5],[0,1,0,0,-5],[1,0,0,0,5],[1,1,0,0,-5]];perimeter=orthogonalPerimeter;outlineConnect=0;targetShapes=umlLifeline;portConstraint=eastwest;newEdgeStyle={&quot;curved&quot;:0,&quot;rounded&quot;:0};" vertex="1" parent="1">
          <mxGeometry x="115" y="350" width="10" height="40" as="geometry" />
        </mxCell>
        <mxCell id="oBHU4gWdmzWZVVvlANU7-23" value="lanzaerror()" style="html=1;align=left;spacingLeft=2;endArrow=block;rounded=0;edgeStyle=orthogonalEdgeStyle;curved=0;rounded=0;" edge="1" parent="1">
          <mxGeometry relative="1" as="geometry">
            <mxPoint x="120" y="343" as="sourcePoint" />
            <Array as="points">
              <mxPoint x="150" y="373" />
            </Array>
            <mxPoint x="125" y="373" as="targetPoint" />
          </mxGeometry>
        </mxCell>
        <mxCell id="oBHU4gWdmzWZVVvlANU7-24" value=":Repository" style="shape=umlLifeline;perimeter=lifelinePerimeter;whiteSpace=wrap;html=1;container=1;dropTarget=0;collapsible=0;recursiveResize=0;outlineConnect=0;portConstraint=eastwest;newEdgeStyle={&quot;curved&quot;:0,&quot;rounded&quot;:0};fillColor=#dae8fc;strokeColor=default;" vertex="1" parent="1">
          <mxGeometry x="440" y="90" width="100" height="450" as="geometry" />
        </mxCell>
        <mxCell id="oBHU4gWdmzWZVVvlANU7-25" value="" style="html=1;points=[[0,0,0,0,5],[0,1,0,0,-5],[1,0,0,0,5],[1,1,0,0,-5]];perimeter=orthogonalPerimeter;outlineConnect=0;targetShapes=umlLifeline;portConstraint=eastwest;newEdgeStyle={&quot;curved&quot;:0,&quot;rounded&quot;:0};" vertex="1" parent="oBHU4gWdmzWZVVvlANU7-24">
          <mxGeometry x="50" y="187.5" width="10" height="102.5" as="geometry" />
        </mxCell>
        <mxCell id="oBHU4gWdmzWZVVvlANU7-26" value="save()" style="html=1;verticalAlign=bottom;endArrow=block;curved=0;rounded=0;entryX=0;entryY=0;entryDx=0;entryDy=5;" edge="1" parent="oBHU4gWdmzWZVVvlANU7-24" source="oBHU4gWdmzWZVVvlANU7-10">
          <mxGeometry relative="1" as="geometry">
            <mxPoint x="-20" y="216.5" as="sourcePoint" />
            <mxPoint x="50" y="216.5" as="targetPoint" />
          </mxGeometry>
        </mxCell>
        <mxCell id="oBHU4gWdmzWZVVvlANU7-27" value="return" style="html=1;verticalAlign=bottom;endArrow=open;dashed=1;endSize=8;curved=0;rounded=0;exitX=0;exitY=1;exitDx=0;exitDy=-5;" edge="1" parent="oBHU4gWdmzWZVVvlANU7-24">
          <mxGeometry relative="1" as="geometry">
            <mxPoint x="-125" y="277.5" as="targetPoint" />
            <mxPoint x="50" y="277.5" as="sourcePoint" />
          </mxGeometry>
        </mxCell>
        <mxCell id="oBHU4gWdmzWZVVvlANU7-28" value="[else]" style="text;html=1;align=left;verticalAlign=middle;whiteSpace=wrap;rounded=0;fontStyle=1" vertex="1" parent="1">
          <mxGeometry x="125" y="317" width="60" height="30" as="geometry" />
        </mxCell>
        <mxCell id="oBHU4gWdmzWZVVvlANU7-29" value=":users" style="shape=umlLifeline;perimeter=lifelinePerimeter;whiteSpace=wrap;html=1;container=1;dropTarget=0;collapsible=0;recursiveResize=0;outlineConnect=0;portConstraint=eastwest;newEdgeStyle={&quot;curved&quot;:0,&quot;rounded&quot;:0};fillColor=#f8cecc;strokeColor=default;" vertex="1" parent="1">
          <mxGeometry x="600" y="90" width="100" height="440" as="geometry" />
        </mxCell>
        <mxCell id="oBHU4gWdmzWZVVvlANU7-33" value="" style="html=1;points=[[0,0,0,0,5],[0,1,0,0,-5],[1,0,0,0,5],[1,1,0,0,-5]];perimeter=orthogonalPerimeter;outlineConnect=0;targetShapes=umlLifeline;portConstraint=eastwest;newEdgeStyle={&quot;curved&quot;:0,&quot;rounded&quot;:0};" vertex="1" parent="oBHU4gWdmzWZVVvlANU7-29">
          <mxGeometry x="50" y="187.5" width="10" height="92.5" as="geometry" />
        </mxCell>
        <mxCell id="oBHU4gWdmzWZVVvlANU7-34" value="save(user)" style="html=1;verticalAlign=bottom;endArrow=block;curved=0;rounded=0;entryX=0;entryY=0;entryDx=0;entryDy=5;" edge="1" parent="oBHU4gWdmzWZVVvlANU7-29">
          <mxGeometry relative="1" as="geometry">
            <mxPoint x="-100" y="217" as="sourcePoint" />
            <mxPoint x="50" y="216.5" as="targetPoint" />
          </mxGeometry>
        </mxCell>
        <mxCell id="oBHU4gWdmzWZVVvlANU7-40" value="&lt;h1&gt;REGISTRO DE USUARIOS&lt;/h1&gt;" style="text;html=1;align=center;verticalAlign=middle;whiteSpace=wrap;rounded=0;" vertex="1" parent="1">
          <mxGeometry x="180" y="20" width="480" height="30" as="geometry" />
        </mxCell>
        <mxCell id="oBHU4gWdmzWZVVvlANU7-41" value=":phones" style="shape=umlLifeline;perimeter=lifelinePerimeter;whiteSpace=wrap;html=1;container=1;dropTarget=0;collapsible=0;recursiveResize=0;outlineConnect=0;portConstraint=eastwest;newEdgeStyle={&quot;curved&quot;:0,&quot;rounded&quot;:0};fillColor=#f8cecc;strokeColor=default;" vertex="1" parent="1">
          <mxGeometry x="710" y="90" width="100" height="440" as="geometry" />
        </mxCell>
        <mxCell id="oBHU4gWdmzWZVVvlANU7-42" value="" style="html=1;points=[[0,0,0,0,5],[0,1,0,0,-5],[1,0,0,0,5],[1,1,0,0,-5]];perimeter=orthogonalPerimeter;outlineConnect=0;targetShapes=umlLifeline;portConstraint=eastwest;newEdgeStyle={&quot;curved&quot;:0,&quot;rounded&quot;:0};" vertex="1" parent="oBHU4gWdmzWZVVvlANU7-41">
          <mxGeometry x="50" y="187.5" width="10" height="102.5" as="geometry" />
        </mxCell>
        <mxCell id="oBHU4gWdmzWZVVvlANU7-35" value="return" style="html=1;verticalAlign=bottom;endArrow=open;dashed=1;endSize=8;curved=0;rounded=0;exitX=0;exitY=1;exitDx=0;exitDy=-5;" edge="1" parent="1">
          <mxGeometry relative="1" as="geometry">
            <mxPoint x="500" y="340.5" as="targetPoint" />
            <mxPoint x="650" y="340" as="sourcePoint" />
          </mxGeometry>
        </mxCell>
        <mxCell id="oBHU4gWdmzWZVVvlANU7-43" value="save(phone)" style="html=1;verticalAlign=bottom;endArrow=block;curved=0;rounded=0;" edge="1" parent="1">
          <mxGeometry x="0.0667" relative="1" as="geometry">
            <mxPoint x="500" y="324.5" as="sourcePoint" />
            <mxPoint x="760" y="324.5" as="targetPoint" />
            <mxPoint as="offset" />
          </mxGeometry>
        </mxCell>
        <mxCell id="oBHU4gWdmzWZVVvlANU7-44" value="return" style="html=1;verticalAlign=bottom;endArrow=open;dashed=1;endSize=8;curved=0;rounded=0;exitX=0;exitY=1;exitDx=0;exitDy=-5;" edge="1" parent="1">
          <mxGeometry relative="1" as="geometry">
            <mxPoint x="500" y="360" as="targetPoint" />
            <mxPoint x="760" y="360" as="sourcePoint" />
          </mxGeometry>
        </mxCell>
      </root>
    </mxGraphModel>
  </diagram>
</mxfile>
